<?xml version="1.0" encoding="UTF-8" standalone="no"?>
<!DOCTYPE svg PUBLIC "-//W3C//DTD SVG 1.1//EN"
 "http://www.w3.org/Graphics/SVG/1.1/DTD/svg11.dtd">
<!-- Generated by graphviz version 2.43.0 (0)
 -->
<!-- Title: fx_graph Pages: 1 -->
<svg width="551pt" height="672pt"
 viewBox="0.00 0.00 551.00 672.00" xmlns="http://www.w3.org/2000/svg" xmlns:xlink="http://www.w3.org/1999/xlink">
<g id="graph0" class="graph" transform="scale(1 1) rotate(0) translate(4 668)">
<title>fx_graph</title>
<polygon fill="white" stroke="transparent" points="-4,4 -4,-668 547,-668 547,4 -4,4"/>
<!-- primals_2 -->
<g id="node1" class="node">
<title>primals_2</title>
<path fill="AliceBlue" stroke="black" d="M12,-571.5C12,-571.5 157,-571.5 157,-571.5 163,-571.5 169,-577.5 169,-583.5 169,-583.5 169,-651.5 169,-651.5 169,-657.5 163,-663.5 157,-663.5 157,-663.5 12,-663.5 12,-663.5 6,-663.5 0,-657.5 0,-651.5 0,-651.5 0,-583.5 0,-583.5 0,-577.5 6,-571.5 12,-571.5"/>
<text text-anchor="middle" x="84.5" y="-648.3" font-family="Times,serif" font-size="14.00" fill="#000000">name=%primals_2</text>
<polyline fill="none" stroke="black" points="0,-640.5 169,-640.5 "/>
<text text-anchor="middle" x="84.5" y="-625.3" font-family="Times,serif" font-size="14.00" fill="#000000">op_code=placeholder</text>
<polyline fill="none" stroke="black" points="0,-617.5 169,-617.5 "/>
<text text-anchor="middle" x="84.5" y="-602.3" font-family="Times,serif" font-size="14.00" fill="#000000">target=primals_2</text>
<polyline fill="none" stroke="black" points="0,-594.5 169,-594.5 "/>
<text text-anchor="middle" x="84.5" y="-579.3" font-family="Times,serif" font-size="14.00" fill="#000000">num_users=1</text>
</g>
<!-- buf0 -->
<g id="node4" class="node">
<title>buf0</title>
<path fill="#aeeeee" stroke="black" d="M143.5,-350.5C143.5,-350.5 399.5,-350.5 399.5,-350.5 405.5,-350.5 411.5,-356.5 411.5,-362.5 411.5,-362.5 411.5,-522.5 411.5,-522.5 411.5,-528.5 405.5,-534.5 399.5,-534.5 399.5,-534.5 143.5,-534.5 143.5,-534.5 137.5,-534.5 131.5,-528.5 131.5,-522.5 131.5,-522.5 131.5,-362.5 131.5,-362.5 131.5,-356.5 137.5,-350.5 143.5,-350.5"/>
<text text-anchor="middle" x="271.5" y="-519.3" font-family="Times,serif" font-size="14.00" fill="#000000">name=%buf0</text>
<polyline fill="none" stroke="black" points="131.5,-511.5 411.5,-511.5 "/>
<text text-anchor="middle" x="271.5" y="-496.3" font-family="Times,serif" font-size="14.00" fill="#000000">op_code=call_function</text>
<polyline fill="none" stroke="black" points="131.5,-488.5 411.5,-488.5 "/>
<text text-anchor="middle" x="271.5" y="-473.3" font-family="Times,serif" font-size="14.00" fill="#000000">target=torch._inductor.debug.extern</text>
<polyline fill="none" stroke="black" points="131.5,-465.5 411.5,-465.5 "/>
<text text-anchor="middle" x="271.5" y="-450.3" font-family="Times,serif" font-size="14.00" fill="#000000">num_users=2</text>
<polyline fill="none" stroke="black" points="131.5,-442.5 411.5,-442.5 "/>
<text text-anchor="middle" x="271.5" y="-427.3" font-family="Times,serif" font-size="14.00" fill="#000000">dtype=None</text>
<polyline fill="none" stroke="black" points="131.5,-419.5 411.5,-419.5 "/>
<text text-anchor="middle" x="271.5" y="-404.3" font-family="Times,serif" font-size="14.00" fill="#000000">shape=(&#39;e&#39;, &#39;x&#39;, &#39;t&#39;, &#39;e&#39;, &#39;r&#39;, &#39;n&#39;)</text>
<polyline fill="none" stroke="black" points="131.5,-396.5 411.5,-396.5 "/>
<text text-anchor="middle" x="271.5" y="-381.3" font-family="Times,serif" font-size="14.00" fill="#000000">requires_grad=None</text>
<polyline fill="none" stroke="black" points="131.5,-373.5 411.5,-373.5 "/>
<text text-anchor="middle" x="271.5" y="-358.3" font-family="Times,serif" font-size="14.00" fill="#000000">stride=None</text>
</g>
<!-- primals_2&#45;&gt;buf0 -->
<g id="edge1" class="edge">
<title>primals_2&#45;&gt;buf0</title>
<path fill="none" stroke="black" d="M133.14,-571.5C143.26,-562.14 154.3,-551.92 165.59,-541.48"/>
<polygon fill="black" stroke="black" points="168.07,-543.96 173.03,-534.6 163.31,-538.82 168.07,-543.96"/>
</g>
<!-- primals_3 -->
<g id="node2" class="node">
<title>primals_3</title>
<path fill="AliceBlue" stroke="black" d="M199,-571.5C199,-571.5 344,-571.5 344,-571.5 350,-571.5 356,-577.5 356,-583.5 356,-583.5 356,-651.5 356,-651.5 356,-657.5 350,-663.5 344,-663.5 344,-663.5 199,-663.5 199,-663.5 193,-663.5 187,-657.5 187,-651.5 187,-651.5 187,-583.5 187,-583.5 187,-577.5 193,-571.5 199,-571.5"/>
<text text-anchor="middle" x="271.5" y="-648.3" font-family="Times,serif" font-size="14.00" fill="#000000">name=%primals_3</text>
<polyline fill="none" stroke="black" points="187,-640.5 356,-640.5 "/>
<text text-anchor="middle" x="271.5" y="-625.3" font-family="Times,serif" font-size="14.00" fill="#000000">op_code=placeholder</text>
<polyline fill="none" stroke="black" points="187,-617.5 356,-617.5 "/>
<text text-anchor="middle" x="271.5" y="-602.3" font-family="Times,serif" font-size="14.00" fill="#000000">target=primals_3</text>
<polyline fill="none" stroke="black" points="187,-594.5 356,-594.5 "/>
<text text-anchor="middle" x="271.5" y="-579.3" font-family="Times,serif" font-size="14.00" fill="#000000">num_users=1</text>
</g>
<!-- primals_3&#45;&gt;buf0 -->
<g id="edge2" class="edge">
<title>primals_3&#45;&gt;buf0</title>
<path fill="none" stroke="black" d="M271.5,-571.5C271.5,-563.12 271.5,-554.05 271.5,-544.76"/>
<polygon fill="black" stroke="black" points="275,-544.6 271.5,-534.6 268,-544.6 275,-544.6"/>
</g>
<!-- primals_1 -->
<g id="node3" class="node">
<title>primals_1</title>
<path fill="AliceBlue" stroke="black" d="M386,-571.5C386,-571.5 531,-571.5 531,-571.5 537,-571.5 543,-577.5 543,-583.5 543,-583.5 543,-651.5 543,-651.5 543,-657.5 537,-663.5 531,-663.5 531,-663.5 386,-663.5 386,-663.5 380,-663.5 374,-657.5 374,-651.5 374,-651.5 374,-583.5 374,-583.5 374,-577.5 380,-571.5 386,-571.5"/>
<text text-anchor="middle" x="458.5" y="-648.3" font-family="Times,serif" font-size="14.00" fill="#000000">name=%primals_1</text>
<polyline fill="none" stroke="black" points="374,-640.5 543,-640.5 "/>
<text text-anchor="middle" x="458.5" y="-625.3" font-family="Times,serif" font-size="14.00" fill="#000000">op_code=placeholder</text>
<polyline fill="none" stroke="black" points="374,-617.5 543,-617.5 "/>
<text text-anchor="middle" x="458.5" y="-602.3" font-family="Times,serif" font-size="14.00" fill="#000000">target=primals_1</text>
<polyline fill="none" stroke="black" points="374,-594.5 543,-594.5 "/>
<text text-anchor="middle" x="458.5" y="-579.3" font-family="Times,serif" font-size="14.00" fill="#000000">num_users=1</text>
</g>
<!-- primals_1&#45;&gt;buf0 -->
<g id="edge3" class="edge">
<title>primals_1&#45;&gt;buf0</title>
<path fill="none" stroke="black" d="M409.86,-571.5C399.74,-562.14 388.7,-551.92 377.41,-541.48"/>
<polygon fill="black" stroke="black" points="379.69,-538.82 369.97,-534.6 374.93,-543.96 379.69,-538.82"/>
</g>
<!-- buf1 -->
<g id="node5" class="node">
<title>buf1</title>
<path fill="Coral" stroke="black" d="M48,-129.5C48,-129.5 319,-129.5 319,-129.5 325,-129.5 331,-135.5 331,-141.5 331,-141.5 331,-301.5 331,-301.5 331,-307.5 325,-313.5 319,-313.5 319,-313.5 48,-313.5 48,-313.5 42,-313.5 36,-307.5 36,-301.5 36,-301.5 36,-141.5 36,-141.5 36,-135.5 42,-129.5 48,-129.5"/>
<text text-anchor="middle" x="183.5" y="-298.3" font-family="Times,serif" font-size="14.00" fill="#000000">name=%buf1</text>
<polyline fill="none" stroke="black" points="36,-290.5 331,-290.5 "/>
<text text-anchor="middle" x="183.5" y="-275.3" font-family="Times,serif" font-size="14.00" fill="#000000">op_code=call_function</text>
<polyline fill="none" stroke="black" points="36,-267.5 331,-267.5 "/>
<text text-anchor="middle" x="183.5" y="-252.3" font-family="Times,serif" font-size="14.00" fill="#000000">target=torch._inductor.debug.compute</text>
<polyline fill="none" stroke="black" points="36,-244.5 331,-244.5 "/>
<text text-anchor="middle" x="183.5" y="-229.3" font-family="Times,serif" font-size="14.00" fill="#000000">num_users=1</text>
<polyline fill="none" stroke="black" points="36,-221.5 331,-221.5 "/>
<text text-anchor="middle" x="183.5" y="-206.3" font-family="Times,serif" font-size="14.00" fill="#000000">dtype=None</text>
<polyline fill="none" stroke="black" points="36,-198.5 331,-198.5 "/>
<text text-anchor="middle" x="183.5" y="-183.3" font-family="Times,serif" font-size="14.00" fill="#000000">shape=(512, 1)</text>
<polyline fill="none" stroke="black" points="36,-175.5 331,-175.5 "/>
<text text-anchor="middle" x="183.5" y="-160.3" font-family="Times,serif" font-size="14.00" fill="#000000">requires_grad=None</text>
<polyline fill="none" stroke="black" points="36,-152.5 331,-152.5 "/>
<text text-anchor="middle" x="183.5" y="-137.3" font-family="Times,serif" font-size="14.00" fill="#000000">stride=None</text>
</g>
<!-- buf0&#45;&gt;buf1 -->
<g id="edge4" class="edge">
<title>buf0&#45;&gt;buf1</title>
<path fill="none" stroke="black" d="M234.82,-350.21C231.21,-341.24 227.54,-332.1 223.9,-323.04"/>
<polygon fill="black" stroke="black" points="227.1,-321.62 220.12,-313.64 220.6,-324.23 227.1,-321.62"/>
</g>
<!-- output -->
<g id="node6" class="node">
<title>output</title>
<path fill="PowderBlue" stroke="black" d="M217,-0.5C217,-0.5 326,-0.5 326,-0.5 332,-0.5 338,-6.5 338,-12.5 338,-12.5 338,-80.5 338,-80.5 338,-86.5 332,-92.5 326,-92.5 326,-92.5 217,-92.5 217,-92.5 211,-92.5 205,-86.5 205,-80.5 205,-80.5 205,-12.5 205,-12.5 205,-6.5 211,-0.5 217,-0.5"/>
<text text-anchor="middle" x="271.5" y="-77.3" font-family="Times,serif" font-size="14.00" fill="#000000">name=%output</text>
<polyline fill="none" stroke="black" points="205,-69.5 338,-69.5 "/>
<text text-anchor="middle" x="271.5" y="-54.3" font-family="Times,serif" font-size="14.00" fill="#000000">op_code=output</text>
<polyline fill="none" stroke="black" points="205,-46.5 338,-46.5 "/>
<text text-anchor="middle" x="271.5" y="-31.3" font-family="Times,serif" font-size="14.00" fill="#000000">target=output</text>
<polyline fill="none" stroke="black" points="205,-23.5 338,-23.5 "/>
<text text-anchor="middle" x="271.5" y="-8.3" font-family="Times,serif" font-size="14.00" fill="#000000">num_users=0</text>
</g>
<!-- buf0&#45;&gt;output -->
<g id="edge5" class="edge">
<title>buf0&#45;&gt;output</title>
<path fill="none" stroke="black" d="M327.63,-350.39C332.9,-338.5 337.41,-326.2 340.5,-314 360.68,-234.29 368.79,-206.2 340.5,-129 336.87,-119.11 331.46,-109.59 325.22,-100.77"/>
<polygon fill="black" stroke="black" points="327.84,-98.42 319.03,-92.53 322.24,-102.63 327.84,-98.42"/>
</g>
<!-- buf1&#45;&gt;output -->
<g id="edge6" class="edge">
<title>buf1&#45;&gt;output</title>
<path fill="none" stroke="black" d="M229.82,-129.44C234.61,-120.02 239.37,-110.66 243.86,-101.83"/>
<polygon fill="black" stroke="black" points="247.02,-103.34 248.44,-92.84 240.78,-100.16 247.02,-103.34"/>
</g>
</g>
</svg>
